<svg width="40" height="40" viewBox="0 0 40 40" fill="none" xmlns="http://www.w3.org/2000/svg">
<rect width="40" height="40" rx="7" fill="#3D7FC1" fill-opacity="0.3"/>
<path d="M28.2312 15.2789C27.9519 14.6372 27.5492 14.0558 27.0456 13.5671C26.5417 13.0769 25.9475 12.6874 25.2954 12.4197C24.6193 12.141 23.8941 11.9983 23.1619 12C22.1347 12 21.1325 12.2791 20.2615 12.8063C20.0532 12.9324 19.8552 13.0709 19.6677 13.2218C19.4802 13.0709 19.2823 12.9324 19.0739 12.8063C18.203 12.2791 17.2008 12 16.1736 12C15.4339 12 14.7172 12.1406 14.04 12.4197C13.3857 12.6885 12.7961 13.0751 12.2898 13.5671C11.7856 14.0552 11.3828 14.6368 11.1042 15.2789C10.8146 15.9466 10.6667 16.6558 10.6667 17.3855C10.6667 18.074 10.8084 18.7914 11.0897 19.5211C11.3251 20.131 11.6626 20.7636 12.0939 21.4025C12.7773 22.4134 13.717 23.4678 14.8838 24.5366C16.8174 26.3084 18.7322 27.5323 18.8135 27.5819L19.3073 27.8961C19.526 28.0346 19.8073 28.0346 20.0261 27.8961L20.5199 27.5819C20.6012 27.5302 22.5139 26.3084 24.4495 24.5366C25.6163 23.4678 26.556 22.4134 27.2394 21.4025C27.6707 20.7636 28.0103 20.131 28.2437 19.5211C28.525 18.7914 28.6667 18.074 28.6667 17.3855C28.6687 16.6558 28.5208 15.9466 28.2312 15.2789Z" fill="#3D7FC1"/>
</svg>
