<svg width="40" height="40" viewBox="0 0 40 40" fill="none" xmlns="http://www.w3.org/2000/svg">
<rect x="0.5" y="0.5" width="39" height="39" rx="6.5" fill="white" stroke="#F8F8F8"/>
<path d="M27.3261 13.8432C26.9004 13.4174 26.3951 13.0796 25.8389 12.8491C25.2827 12.6186 24.6865 12.5 24.0844 12.5C23.4823 12.5 22.8862 12.6186 22.3299 12.8491C21.7737 13.0796 21.2684 13.4174 20.8427 13.8432L19.9594 14.7265L19.0761 13.8432C18.2163 12.9834 17.0503 12.5004 15.8344 12.5004C14.6185 12.5004 13.4525 12.9834 12.5927 13.8432C11.733 14.7029 11.25 15.869 11.25 17.0849C11.25 18.3007 11.733 19.4668 12.5927 20.3265L13.4761 21.2099L19.9594 27.6932L26.4427 21.2099L27.3261 20.3265C27.7519 19.9009 28.0897 19.3955 28.3202 18.8393C28.5506 18.2831 28.6693 17.6869 28.6693 17.0849C28.6693 16.4828 28.5506 15.8866 28.3202 15.3304C28.0897 14.7742 27.7519 14.2688 27.3261 13.8432Z" stroke="#EAEAEA" stroke-width="1.2" stroke-linecap="round" stroke-linejoin="round"/>
</svg>
