<svg width="30" height="30" viewBox="0 0 30 30" fill="none" xmlns="http://www.w3.org/2000/svg">
<path d="M14.4125 17.495C13.45 17.3937 12.5837 17.155 11.8412 16.57C11.7487 16.4975 11.6537 16.4275 11.57 16.345C11.245 16.0325 11.2112 15.6712 11.47 15.3012C11.6887 14.9837 12.0575 14.8987 12.4425 15.08C12.5174 15.1153 12.5886 15.1581 12.655 15.2075C14.0387 16.165 15.94 16.1912 17.33 15.25C17.4632 15.1404 17.6177 15.0595 17.7837 15.0125C17.9374 14.9675 18.1018 14.9756 18.2504 15.0354C18.3989 15.0953 18.523 15.2035 18.6025 15.3425C18.8062 15.6762 18.8025 16.0012 18.5525 16.26C18.1695 16.6506 17.7058 16.9526 17.1937 17.145C16.7087 17.335 16.1762 17.43 15.65 17.4937C15.73 17.5812 15.7675 17.6237 15.8175 17.6737C16.5325 18.3946 17.2471 19.1171 17.9612 19.8412C18.2037 20.0887 18.255 20.395 18.1212 20.6825C17.975 20.995 17.6475 21.2025 17.3275 21.18C17.1334 21.1601 16.954 21.0677 16.825 20.9212C16.2862 20.375 15.7375 19.8387 15.2087 19.2825C15.055 19.12 14.98 19.1512 14.845 19.2912C14.3017 19.8529 13.7521 20.4087 13.1962 20.9587C12.9475 21.205 12.6512 21.25 12.3625 21.1087C12.2146 21.039 12.0899 20.9281 12.0034 20.7893C11.917 20.6505 11.8724 20.4897 11.875 20.3262C11.8916 20.124 11.9856 19.9359 12.1375 19.8012L14.255 17.665C14.3012 17.6175 14.345 17.5675 14.4125 17.495Z" fill="#3D7FC1"/>
<path d="M14.985 15C14.1593 14.9927 13.37 14.6594 12.7891 14.0726C12.2082 13.4858 11.8827 12.6932 11.8838 11.8675C11.8877 11.0382 12.2204 10.2444 12.8087 9.65998C13.3971 9.07558 14.1932 8.74834 15.0225 8.75001C15.435 8.75229 15.8429 8.8361 16.2229 8.99663C16.6028 9.15715 16.9473 9.39123 17.2364 9.68538C17.5256 9.97952 17.7537 10.3279 17.9077 10.7106C18.0617 11.0932 18.1385 11.5026 18.1338 11.915C18.125 13.6225 16.7125 15.0063 14.985 15ZM16.54 11.8725C16.5402 11.6717 16.5007 11.4729 16.4238 11.2874C16.3469 11.1019 16.2342 10.9334 16.092 10.7916C15.9499 10.6498 15.7811 10.5374 15.5954 10.461C15.4097 10.3846 15.2108 10.3456 15.01 10.3463C14.8075 10.3452 14.6069 10.3846 14.4197 10.4619C14.2326 10.5393 14.0628 10.6531 13.9201 10.7968C13.7775 10.9406 13.6649 11.1112 13.5889 11.2989C13.5129 11.4866 13.475 11.6875 13.4775 11.89C13.4788 12.0908 13.5198 12.2894 13.598 12.4743C13.6762 12.6592 13.7902 12.8269 13.9334 12.9677C14.0766 13.1084 14.2462 13.2195 14.4325 13.2946C14.6187 13.3696 14.818 13.4072 15.0188 13.405C15.2195 13.4052 15.4183 13.3656 15.6037 13.2885C15.7891 13.2114 15.9574 13.0983 16.0988 12.9558C16.2403 12.8134 16.3521 12.6443 16.4278 12.4583C16.5035 12.2724 16.5417 12.0733 16.54 11.8725Z" fill="#3D7FC1"/>
<path d="M15 25C17.6522 25 20.1957 23.9464 22.0711 22.0711C23.9464 20.1957 25 17.6522 25 15C25 12.3478 23.9464 9.8043 22.0711 7.92893C20.1957 6.05357 17.6522 5 15 5C12.3478 5 9.8043 6.05357 7.92893 7.92893C6.05357 9.8043 5 12.3478 5 15C5 17.6522 6.05357 20.1957 7.92893 22.0711C9.8043 23.9464 12.3478 25 15 25ZM15 27.5C8.09625 27.5 2.5 21.9037 2.5 15C2.5 8.09625 8.09625 2.5 15 2.5C21.9037 2.5 27.5 8.09625 27.5 15C27.5 21.9037 21.9037 27.5 15 27.5Z" fill="#3D7FC1"/>
</svg>
