<svg width="9" height="9" viewBox="0 0 9 9" fill="none" xmlns="http://www.w3.org/2000/svg">
<path d="M7.90839 3.46324H5.33032V0.885173C5.33032 0.410594 4.94555 0.0258179 4.47097 0.0258179C3.99639 0.0258179 3.61161 0.410594 3.61161 0.885173V3.46324H1.03355C0.55897 3.46324 0.174194 3.84801 0.174194 4.32259C0.174194 4.79717 0.55897 5.18195 1.03355 5.18195H3.61161V7.76001C3.61161 8.23459 3.99639 8.61937 4.47097 8.61937C4.94555 8.61937 5.33032 8.23459 5.33032 7.76001V5.18195H7.90839C8.38297 5.18195 8.76774 4.79717 8.76774 4.32259C8.76774 3.84801 8.38297 3.46324 7.90839 3.46324Z" fill="#3D7FC1"/>
</svg>
